<svg width="30" height="30" viewBox="0 0 30 30" fill="none" xmlns="http://www.w3.org/2000/svg">
<path d="M11.1819 29C11.8848 29 12.4546 28.403 12.4546 27.6667C12.4546 26.9303 11.8848 26.3333 11.1819 26.3333C10.479 26.3333 9.90918 26.9303 9.90918 27.6667C9.90918 28.403 10.479 29 11.1819 29Z" stroke="black" stroke-width="2" stroke-linecap="round" stroke-linejoin="round"/>
<path d="M25.1818 29C25.8847 29 26.4545 28.403 26.4545 27.6667C26.4545 26.9303 25.8847 26.3333 25.1818 26.3333C24.4789 26.3333 23.9091 26.9303 23.9091 27.6667C23.9091 28.403 24.4789 29 25.1818 29Z" stroke="black" stroke-width="2" stroke-linecap="round" stroke-linejoin="round"/>
<path d="M1 1H6.09091L9.50182 18.8533C9.6182 19.4672 9.93697 20.0186 10.4023 20.4111C10.8677 20.8035 11.45 21.012 12.0473 21H24.4182C25.0155 21.012 25.5978 20.8035 26.0631 20.4111C26.5285 20.0186 26.8473 19.4672 26.9636 18.8533L29 7.66667H7.36364" stroke="black" stroke-width="2" stroke-linecap="round" stroke-linejoin="round"/>
</svg>
